<svg width="179" height="91" viewBox="0 0 179 91" fill="none" xmlns="http://www.w3.org/2000/svg">
<path fill-rule="evenodd" clip-rule="evenodd" d="M0 23.2273V46.4546H42.3163H84.6327L84.7215 39.5028C84.7704 35.6793 84.8105 25.2269 84.8105 16.2755L84.8106 0H42.4053H0V23.2273ZM90.2034 0.41373L88.5621 0.802814V1.54642V2.29002H89.299H90.0359V24.3723V46.4546H91.9787H93.9214V44.6008V42.747H128.891H163.86V44.6008V46.4546H165.803H167.746V24.3723V2.29002H168.482H169.219V1.54609V0.80216L167.477 0.46869L165.734 0.135111L164.094 0.465746C163.191 0.647529 162.441 0.802705 162.426 0.810666C162.412 0.818626 162.358 1.15471 162.307 1.55754L162.215 2.29002H163.038H163.86V3.87122V5.45242H128.891H93.9214V3.87122V2.29002H94.6583H95.3952V1.55361V0.817318L93.7539 0.445572C92.8513 0.241106 92.0524 0.0627029 91.9787 0.0491809C91.905 0.0356589 91.106 0.199667 90.2034 0.41373ZM42.2043 18.5928V36.7493H21.3031H0.401946V18.5928V0.436194H21.3031H42.2043V18.5928ZM84.2747 18.5928V36.7493H63.4405H42.6063V18.5928V0.436194H63.4405H84.2747V18.5928ZM95.5292 24.0997V37.8398H94.7253H93.9214V24.0997V10.3596H94.7253H95.5292V24.0997ZM101.96 24.0997V37.8398H100.42H98.8787V24.0997V10.3596H100.42H101.96V24.0997ZM108.257 24.0997V37.8398H106.717H105.176V24.0997V10.3596H106.717H108.257V24.0997ZM114.555 24.0997V37.8398H113.081H111.607V24.0997V10.3596H113.081H114.555V24.0997ZM120.852 24.0997V37.8398H119.378H117.904V24.0997V10.3596H119.378H120.852V24.0997ZM127.283 24.0997V37.8398H125.742H124.201V24.0997V10.3596H125.742H127.283V24.0997ZM133.58 24.0997V37.8398H132.039H130.498V24.0997V10.3596H132.039H133.58V24.0997ZM140.011 24.0997V37.8398H138.47H136.93V24.0997V10.3596H138.47H140.011V24.0997ZM146.308 24.0997V37.8398H144.768H143.227V24.0997V10.3596H144.768H146.308V24.0997ZM152.74 24.0997V37.8398H151.199H149.658V24.0997V10.3596H151.199H152.74V24.0997ZM159.037 24.0997V37.8398H157.496H155.955V24.0997V10.3596H157.496H159.037V24.0997ZM163.86 24.0997V37.8398H163.123H162.386V24.0997V10.3596H163.123H163.86V24.0997ZM10.8221 61.0186C9.24396 61.3299 7.80968 62.1069 7.03312 63.0712C5.29885 65.2247 6.29206 68.0849 9.15204 69.1736C9.5347 69.3191 10.681 69.6411 11.6996 69.889C13.7057 70.3773 14.3302 70.5989 15.0072 71.0626C15.9499 71.7083 16.2037 72.8764 15.622 73.8931C15.1017 74.8027 13.9412 75.3525 12.5413 75.3525C11.6784 75.3525 10.1336 75.0094 9.11815 74.5922C8.41608 74.3037 7.63698 73.7298 7.63698 73.5011C7.63698 73.4517 7.41992 72.9894 7.15464 72.4736L6.67231 71.5358H6.13571H5.59898L5.69544 73.2533C5.74837 74.198 5.8309 75.1628 5.87873 75.3975C5.96354 75.8141 5.98605 75.8289 6.83483 76.0295C10.3841 76.8683 13.2346 76.9659 15.3519 76.3212C17.9157 75.5404 19.4155 73.7496 19.2659 71.6475C19.1137 69.5069 17.4927 68.3136 13.4166 67.3419C10.8899 66.7395 10.0548 66.3172 9.58682 65.4053C9.07474 64.4075 9.46998 63.2785 10.5472 62.6623C11.0252 62.3889 11.2686 62.3328 12.1539 62.292C12.8699 62.2591 13.4685 62.3016 14.0622 62.4277C15.7363 62.7832 16.1096 63.0702 16.7478 64.4924L17.2167 65.5374L17.7861 65.5378L18.3555 65.5381V63.5379V61.5378L17.0492 61.3013C14.4151 60.8246 12.2935 60.7283 10.8221 61.0186ZM34.8353 63.1998V65.2235L35.3914 65.1899L35.9474 65.1564L36.4967 63.8478L37.046 62.5393L39.2232 62.5093L41.4004 62.4793V68.6845C41.4004 74.2862 41.3791 74.9042 41.1821 75.0393C41.0619 75.1215 40.4741 75.2893 39.8757 75.4121C38.8163 75.6294 38.7867 75.6445 38.7459 75.9846L38.7038 76.3339H43.0668H47.4296V75.9722C47.4296 75.6106 47.4292 75.6104 46.3913 75.4141C45.8202 75.3061 45.2473 75.1423 45.1184 75.0502C44.9003 74.8941 44.884 74.4506 44.884 68.6809V62.4793L47.0612 62.5093L49.2384 62.5393L49.7877 63.8478L50.3371 65.1564L50.8931 65.1899L51.4491 65.2235V63.1998V61.1762H43.1422H34.8353V63.1998ZM73.6495 62.0758C72.6524 63.5754 72.6046 63.667 69.8757 69.3003C68.423 72.2991 67.1085 74.8634 66.9547 74.9986C66.8009 75.1339 66.3542 75.3269 65.9622 75.4275C65.2893 75.6001 65.2492 75.6307 65.2492 75.9722V76.3339H68.1969H71.1445V75.974C71.1445 75.6169 71.1371 75.6128 70.1325 75.4092C69.5761 75.2963 69.0876 75.1605 69.0472 75.1073C69.0068 75.0541 69.3867 74.13 69.8916 73.0538L70.8095 71.0971L73.8707 71.1256L76.9319 71.1541L77.9214 73.1642C78.4658 74.2697 78.8969 75.1814 78.8798 75.19C78.8625 75.1986 78.3511 75.2957 77.7431 75.4059L76.6377 75.6062V75.9701V76.3339H80.4562H84.2747V75.9748C84.2747 75.6364 84.2317 75.6038 83.5277 75.409C83.1168 75.2954 82.6798 75.096 82.5564 74.966C82.433 74.8359 80.8548 71.6808 79.0494 67.9545L75.7668 61.1795L75.0073 61.1779L74.2477 61.1762L73.6495 62.0758ZM98.3428 61.5536C98.3428 61.914 98.3742 61.9386 99.0371 62.0988C99.4188 62.1912 99.8027 62.2666 99.8899 62.2666C99.9771 62.2666 100.207 62.3684 100.401 62.4927L100.754 62.7187V68.763C100.754 75.7257 100.897 75.0734 99.3029 75.4099C98.3558 75.6098 98.3428 75.6174 98.3428 75.9733V76.3339H102.429H106.516V75.9701C106.516 75.6167 106.492 75.601 105.678 75.418C104.141 75.0722 104.238 75.263 104.238 72.5919V70.2725L104.823 69.8051L105.409 69.3375L108.048 72.2471C109.499 73.8474 110.647 75.1884 110.6 75.2273C110.552 75.2662 110.172 75.3715 109.754 75.4615C109.044 75.6144 108.992 75.6482 108.952 75.9795L108.91 76.3339H112.871H116.832V75.9782C116.832 75.6344 116.803 75.6156 115.977 75.4229C115.355 75.278 114.992 75.1144 114.649 74.8245C114.389 74.605 112.751 72.8641 111.01 70.9555L107.843 67.4856L109.715 65.8848C113.21 62.8964 113.442 62.7304 114.701 62.3242C115.801 61.9694 115.828 61.9514 115.869 61.5684L115.911 61.1762H112.813H109.715L109.757 61.5706C109.796 61.9423 109.843 61.9784 110.572 62.1994L111.346 62.4337L107.826 65.5654L104.305 68.6969L104.267 65.8362C104.247 64.2628 104.261 62.8712 104.299 62.7439C104.372 62.501 104.671 62.3758 105.779 62.1244C106.413 61.9807 106.451 61.9509 106.49 61.5743L106.532 61.1762H102.437H98.3428V61.5536ZM131.328 61.5745C131.369 61.9686 131.379 61.9752 132.302 62.1803C132.816 62.2943 133.313 62.44 133.408 62.504C133.544 62.5964 133.58 63.8879 133.58 68.7514C133.58 75.7714 133.722 75.0814 132.207 75.4081C131.318 75.5996 131.302 75.6092 131.302 75.9684V76.3339H139.14H146.978V74.262V72.19H146.407H145.836L145.456 73.3078C145.247 73.9226 144.994 74.585 144.895 74.7799L144.714 75.1344H140.889H137.064V72.1355V69.1367H139.187H141.31L141.529 69.5456C141.649 69.7706 141.873 70.2367 142.028 70.5816C142.304 71.1998 142.316 71.2086 142.834 71.2086H143.361V68.4824V65.7562H142.837H142.312L141.949 66.5468C141.316 67.9254 141.529 67.8281 139.137 67.8281H137.064V65.1564V62.4847H140.331H143.598L143.8 62.8391C143.911 63.0341 144.171 63.623 144.379 64.1477L144.756 65.1019H145.331H145.906V63.139V61.1762H138.596H131.286L131.328 61.5745ZM162.386 63.1998V65.2235L162.942 65.1899L163.498 65.1564L164.048 63.8478L164.597 62.5393L166.774 62.5093L168.951 62.4793V68.6845C168.951 74.2862 168.93 74.9042 168.733 75.0393C168.613 75.1215 168.025 75.2893 167.427 75.4121C166.367 75.6294 166.338 75.6445 166.297 75.9846L166.255 76.3339H170.618H174.981V75.9722C174.981 75.6106 174.98 75.6104 173.942 75.4141C173.371 75.3061 172.798 75.1423 172.669 75.0502C172.451 74.8941 172.435 74.4506 172.435 68.6809V62.4793L174.612 62.5093L176.789 62.5393L177.339 63.8478L177.888 65.1564L178.444 65.1899L179 65.2235V63.1998V61.1762H170.693H162.386V63.1998ZM75.5522 68.3051C75.9345 69.0772 76.2232 69.7286 76.1937 69.7525C76.1642 69.7765 75.0847 69.7827 73.7949 69.7663L71.4495 69.7365L72.04 68.4824C72.3646 67.7927 72.9077 66.6443 73.2465 65.9303L73.8626 64.6322L74.3599 65.7668C74.6334 66.3907 75.1698 67.5329 75.5522 68.3051ZM78.2464 85.1168C77.63 85.3418 77.2117 85.6694 76.8599 86.2028C76.4497 86.8242 76.4566 88.2963 76.8725 88.9425C77.5434 89.9852 78.9019 90.4095 80.4562 90.062C81.137 89.9098 82.0163 89.1799 82.2351 88.5854C82.5095 87.84 82.441 86.8262 82.0728 86.1825C81.604 85.3629 80.9096 85.015 79.6644 84.9758C79.021 84.9556 78.5634 85.0011 78.2464 85.1168ZM101.159 85.1321C100.585 85.3763 100.085 85.9635 100.085 86.3933C100.085 86.8733 100.471 87.4445 100.924 87.6352C101.144 87.728 101.626 87.8768 101.994 87.9656C102.746 88.1474 103.3 88.5331 103.3 88.8745C103.3 88.9999 103.145 89.2289 102.955 89.3834C102.67 89.6157 102.522 89.6547 102.1 89.6086C101.304 89.5218 100.843 89.2891 100.586 88.8458C100.206 88.1893 99.9506 88.3084 99.9506 89.142V89.8456L100.453 89.9658C102.387 90.4285 103.962 90.049 104.38 89.0197C104.729 88.1587 104.141 87.4754 102.734 87.1066C101.66 86.8251 101.29 86.5828 101.29 86.1609C101.29 85.2909 103.061 85.2537 103.503 86.1145C103.605 86.313 103.782 86.4754 103.896 86.4754C104.061 86.4754 104.104 86.3402 104.104 85.8275C104.104 85.4712 104.038 85.1465 103.958 85.1061C103.877 85.0655 103.319 85.0102 102.718 84.9832C101.839 84.9436 101.534 84.9727 101.159 85.1321ZM60.8278 85.2193C60.8278 85.308 60.9791 85.4116 61.164 85.4495C61.3539 85.4882 61.5308 85.6196 61.5708 85.7514C61.6096 85.8797 61.6241 86.7692 61.6031 87.7281L61.5647 89.4715L61.1963 89.6151C60.9936 89.6942 60.8278 89.8297 60.8278 89.9164C60.8278 90.0439 61.0984 90.074 62.2444 90.074C63.5076 90.074 63.6563 90.0538 63.6171 89.888C63.5928 89.7856 63.4227 89.6731 63.2388 89.638C62.9255 89.5781 62.9022 89.5249 62.8652 88.786L62.8258 87.9979L63.3538 88.0667C64.0352 88.1554 64.705 87.9713 65.1851 87.5635C65.4938 87.3013 65.5779 87.1175 65.6233 86.6066C65.6732 86.0449 65.6395 85.9356 65.3217 85.6282C64.8469 85.1689 64.2842 85.0591 62.4021 85.0584C61.1008 85.0579 60.8278 85.0858 60.8278 85.2193ZM68.3308 85.2193C68.3308 85.308 68.4816 85.4115 68.6658 85.4491L69.0007 85.5176V87.5259V89.5342L68.6658 89.6378C68.4816 89.6948 68.3308 89.8163 68.3308 89.9077C68.3308 90.0462 68.5664 90.074 69.7376 90.074C70.8133 90.074 71.1445 90.0401 71.1445 89.93C71.1445 89.851 70.9486 89.716 70.709 89.6302C70.2817 89.4772 70.2728 89.4594 70.2342 88.6836C70.1979 87.9528 70.2153 87.893 70.4652 87.893C70.6562 87.893 70.9727 88.18 71.5435 88.8709C71.9877 89.4086 72.4677 89.8993 72.61 89.9613C72.7522 90.0233 73.2042 90.074 73.6143 90.074C74.199 90.074 74.36 90.0375 74.36 89.9047C74.36 89.8116 74.1804 89.6845 73.9606 89.6222C73.6896 89.5452 73.3239 89.2331 72.8218 88.6499C72.4151 88.1775 72.0823 87.7436 72.0823 87.6858C72.0823 87.6279 72.2013 87.5498 72.3468 87.5122C72.8226 87.3893 73.1542 86.9226 73.1542 86.3759C73.1542 85.314 72.556 85.0578 70.0769 85.0578C68.6241 85.0578 68.3308 85.0849 68.3308 85.2193ZM85.0786 85.1975C85.0786 85.2742 85.2608 85.3931 85.4836 85.4616L85.8886 85.586L85.8521 87.5798L85.8155 89.5736L85.4812 89.6378C85.2974 89.673 85.1272 89.7856 85.103 89.888C85.0637 90.0539 85.213 90.074 86.4854 90.074C87.7578 90.074 87.9071 90.0539 87.8678 89.888C87.8436 89.7856 87.6734 89.6731 87.4896 89.6379C87.171 89.5771 87.1534 89.5321 87.1165 88.679L87.0775 87.784H87.7598C88.3975 87.784 88.4512 87.8053 88.5822 88.1111C88.6593 88.291 88.8069 88.4383 88.9102 88.4383C89.0567 88.4383 89.0981 88.2338 89.0981 87.5114C89.0981 86.7964 89.0558 86.5844 88.9133 86.5844C88.8117 86.5844 88.6536 86.7317 88.5621 86.9116C88.4093 87.2119 88.342 87.2387 87.742 87.2387H87.0883V86.3618V85.4848L88.1152 85.5166L89.142 85.5485L89.2993 85.9301C89.3858 86.1401 89.5569 86.3276 89.6794 86.347C89.8671 86.3768 89.9019 86.2788 89.9019 85.72V85.0578H87.4903C85.6193 85.0578 85.0786 85.0891 85.0786 85.1975ZM92.4476 85.1975C92.4476 85.2742 92.6298 85.3931 92.8526 85.4616L93.2577 85.586L93.2211 87.5798L93.1845 89.5736L92.8502 89.6378C92.6664 89.673 92.4962 89.7856 92.472 89.888C92.4327 90.0539 92.582 90.074 93.8544 90.074C95.1268 90.074 95.2761 90.0539 95.2368 89.888C95.2126 89.7856 95.0424 89.6731 94.8586 89.6379C94.54 89.5771 94.5225 89.5321 94.4855 88.679L94.4465 87.784H95.1289C95.7665 87.784 95.8202 87.8053 95.9512 88.1111C96.0283 88.291 96.1759 88.4383 96.2792 88.4383C96.4257 88.4383 96.4671 88.2338 96.4671 87.5114C96.4671 86.7964 96.4249 86.5844 96.2823 86.5844C96.1807 86.5844 96.0226 86.7317 95.9311 86.9116C95.7783 87.2119 95.711 87.2387 95.111 87.2387H94.4573V86.3618V85.4848L95.4842 85.5166L96.511 85.5485L96.6683 85.9301C96.7549 86.1401 96.926 86.3276 97.0484 86.347C97.2361 86.3768 97.271 86.2788 97.271 85.72V85.0578H94.8593C92.9884 85.0578 92.4476 85.0891 92.4476 85.1975ZM107.186 85.2193C107.186 85.308 107.337 85.4116 107.522 85.4495C107.712 85.4882 107.889 85.6196 107.929 85.7514C107.967 85.8797 107.982 86.7692 107.961 87.7281L107.923 89.4715L107.554 89.6151C107.351 89.6942 107.186 89.8297 107.186 89.9164C107.186 90.0485 107.609 90.074 109.798 90.074H112.411V89.3652C112.411 88.7337 112.382 88.6564 112.148 88.6564C111.955 88.6564 111.847 88.7718 111.741 89.0926L111.597 89.5287H110.396H109.195V88.6018V87.6749H109.81C110.37 87.6749 110.438 87.704 110.576 88.0021C110.666 88.1968 110.824 88.3292 110.966 88.3292C111.177 88.3292 111.205 88.2185 111.205 87.4023C111.205 86.6375 111.169 86.4754 110.997 86.4754C110.883 86.4754 110.701 86.6471 110.594 86.8571C110.411 87.2129 110.357 87.2387 109.797 87.2387H109.195V86.3663V85.494H110.117C111.101 85.494 111.254 85.562 111.41 86.0671C111.47 86.2614 111.591 86.3663 111.755 86.3663C111.976 86.3663 112.009 86.2812 112.009 85.7121V85.0578H109.597C107.557 85.0578 107.186 85.0826 107.186 85.2193ZM114.957 85.1975C114.957 85.2742 115.137 85.3926 115.359 85.4606L115.76 85.584V87.5591V89.5342L115.426 89.6378C115.241 89.6948 115.091 89.8163 115.091 89.9077C115.091 90.0429 115.291 90.074 116.162 90.074C117.008 90.074 117.234 90.0407 117.234 89.9164C117.234 89.8297 117.069 89.6942 116.866 89.6151L116.497 89.4716L116.461 87.8372L116.424 86.2028L117.17 87.0752C117.58 87.555 118.32 88.4245 118.814 89.0074C119.56 89.8869 119.773 90.0679 120.064 90.0706C120.366 90.0736 120.426 90.0175 120.498 89.6651C120.543 89.4402 120.582 88.4316 120.582 87.4239L120.584 85.5917L120.986 85.4776C121.207 85.4149 121.388 85.2947 121.388 85.2106C121.388 85.0915 121.137 85.0578 120.249 85.0578C119.361 85.0578 119.11 85.0915 119.11 85.2106C119.11 85.2947 119.291 85.4149 119.512 85.4776L119.914 85.5917V87.0878V88.5838L118.419 86.8209L116.923 85.0578H115.94C115.23 85.0578 114.957 85.0966 114.957 85.1975ZM80.391 85.7679C81.4951 86.6289 81.2626 89.1794 80.0422 89.5944C79.3436 89.832 78.6749 89.6043 78.2481 88.9835C77.957 88.5604 77.9106 88.3577 77.9106 87.5114C77.9107 86.4027 78.1644 85.8186 78.7655 85.5435C79.2426 85.3251 79.948 85.4225 80.391 85.7679ZM63.6916 85.5978C64.7979 85.9402 64.4605 87.5659 63.2832 87.5659H62.8376V86.5299C62.8376 85.3965 62.8825 85.3474 63.6916 85.5978ZM71.6604 85.8879C72.2891 86.4827 71.6464 87.5109 70.6931 87.4355L70.2736 87.4023L70.2346 86.4332L70.1956 85.4641L70.7704 85.5268C71.1692 85.5703 71.4415 85.6808 71.6604 85.8879Z" fill="white"/>
</svg>
