<svg width="371" height="187" viewBox="0 0 371 187" fill="none" xmlns="http://www.w3.org/2000/svg">
<path fill-rule="evenodd" clip-rule="evenodd" d="M0 48.1642V96.3285H87.706H175.412L175.596 81.9131C175.697 73.9848 175.78 52.3107 175.78 33.7489L175.781 0H87.8903H0V48.1642ZM186.958 0.857911L183.556 1.66472V3.20665V4.74859H185.083H186.611V50.5385V96.3285H190.637H194.664V92.4844V88.6403H267.142H339.621V92.4844V96.3285H343.647H347.674V50.5385V4.74859H349.201H350.728V3.20597V1.66336L347.116 0.971877L343.504 0.280166L340.105 0.965772C338.235 1.34272 336.68 1.66449 336.649 1.681C336.619 1.69751 336.508 2.39442 336.403 3.22972L336.212 4.74859H337.916H339.621V8.02737V11.3062H267.142H194.664V8.02737V4.74859H196.191H197.719V3.22158V1.69479L194.317 0.923939C192.446 0.499958 190.79 0.130021 190.637 0.101982C190.485 0.0739423 188.829 0.414031 186.958 0.857911ZM87.4738 38.554V76.2035H44.1534H0.833084V38.554V0.904493H44.1534H87.4738V38.554ZM174.67 38.554V76.2035H131.488H88.3069V38.554V0.904493H131.488H174.67V38.554ZM197.996 49.9732V78.4647H196.33H194.664V49.9732V21.4817H196.33H197.996V49.9732ZM211.326 49.9732V78.4647H208.132H204.939V49.9732V21.4817H208.132H211.326V49.9732ZM224.377 49.9732V78.4647H221.184H217.99V49.9732V21.4817H221.184H224.377V49.9732ZM237.429 49.9732V78.4647H234.374H231.32V49.9732V21.4817H234.374H237.429V49.9732ZM250.481 49.9732V78.4647H247.426H244.371V49.9732V21.4817H247.426H250.481V49.9732ZM263.81 49.9732V78.4647H260.616H257.423V49.9732V21.4817H260.616H263.81V49.9732ZM276.862 49.9732V78.4647H273.668H270.475V49.9732V21.4817H273.668H276.862V49.9732ZM290.191 49.9732V78.4647H286.997H283.804V49.9732V21.4817H286.997H290.191V49.9732ZM303.243 49.9732V78.4647H300.049H296.856V49.9732V21.4817H300.049H303.243V49.9732ZM316.572 49.9732V78.4647H313.378H310.185V49.9732V21.4817H313.378H316.572V49.9732ZM329.624 49.9732V78.4647H326.43H323.237V49.9732V21.4817H326.43H329.624V49.9732ZM339.621 49.9732V78.4647H338.093H336.566V49.9732V21.4817H338.093H339.621V49.9732ZM22.4302 126.528C19.1593 127.174 16.1865 128.785 14.577 130.785C10.9825 135.25 13.0411 141.181 18.9688 143.439C19.7619 143.74 22.1378 144.408 24.2489 144.922C28.4068 145.935 29.7011 146.394 31.1043 147.356C33.0582 148.695 33.5841 151.117 32.3786 153.225C31.3001 155.111 28.895 156.251 25.9933 156.251C24.205 156.251 21.0032 155.54 18.8985 154.675C17.4434 154.076 15.8286 152.886 15.8286 152.412C15.8286 152.31 15.3787 151.351 14.8289 150.281L13.8292 148.337H12.717H11.6046L11.8045 151.898C11.9142 153.857 12.0853 155.858 12.1844 156.345C12.3602 157.208 12.4068 157.239 14.166 157.655C21.5224 159.394 27.4304 159.597 31.8188 158.26C37.1325 156.641 40.241 152.927 39.9311 148.569C39.6156 144.13 36.2558 141.655 27.8075 139.64C22.5707 138.391 20.8399 137.516 19.8699 135.625C18.8085 133.556 19.6277 131.215 21.8604 129.937C22.8512 129.37 23.3555 129.254 25.1905 129.169C26.6745 129.101 27.9152 129.189 29.1457 129.45C32.6155 130.187 33.3892 130.783 34.7118 133.732L35.6838 135.899L36.864 135.899L38.0442 135.9V131.752V127.605L35.3366 127.115C29.8772 126.126 25.4799 125.926 22.4302 126.528ZM72.2006 131.051V135.248L73.353 135.178L74.5055 135.109L75.644 132.395L76.7826 129.682L81.2951 129.619L85.8076 129.557V142.424C85.8076 154.04 85.7635 155.322 85.355 155.602C85.1059 155.772 83.8877 156.12 82.6475 156.375C80.4517 156.825 80.3904 156.857 80.3057 157.562L80.2185 158.286H89.2613H98.3039V157.536C98.3039 156.786 98.3031 156.786 96.1518 156.379C94.9682 156.155 93.7808 155.815 93.5137 155.624C93.0616 155.301 93.0277 154.381 93.0277 142.417V129.557L97.5402 129.619L102.053 129.682L103.191 132.395L104.33 135.109L105.482 135.178L106.635 135.248V131.051V126.855H89.4177H72.2006V131.051ZM152.648 128.721C150.581 131.83 150.482 132.02 144.826 143.701C141.815 149.92 139.091 155.237 138.772 155.517C138.453 155.798 137.527 156.198 136.715 156.407C135.32 156.765 135.237 156.828 135.237 157.536V158.286H141.347H147.456V157.54C147.456 156.799 147.441 156.791 145.358 156.369C144.205 156.135 143.193 155.853 143.109 155.743C143.025 155.632 143.813 153.716 144.859 151.485L146.762 147.427L153.106 147.486L159.451 147.545L161.502 151.713C162.63 154.006 163.524 155.896 163.488 155.914C163.452 155.932 162.392 156.134 161.132 156.362L158.841 156.777V157.532V158.286H166.756H174.67V157.542C174.67 156.84 174.581 156.772 173.122 156.368C172.27 156.133 171.364 155.719 171.108 155.45C170.853 155.18 167.582 148.638 163.84 140.911L157.036 126.862L155.462 126.859L153.888 126.855L152.648 128.721ZM203.828 127.638C203.828 128.385 203.893 128.436 205.267 128.768C206.058 128.96 206.854 129.116 207.034 129.116C207.215 129.116 207.692 129.327 208.095 129.585L208.826 130.054V142.587C208.826 157.025 209.122 155.672 205.818 156.37C203.855 156.785 203.828 156.801 203.828 157.538V158.286H212.298H220.767V157.532C220.767 156.799 220.718 156.766 219.032 156.387C215.845 155.67 216.046 156.066 216.046 150.527V145.717L217.26 144.748L218.473 143.778L223.942 149.812C226.95 153.13 229.331 155.911 229.232 155.992C229.133 156.072 228.344 156.291 227.479 156.477C226.007 156.794 225.899 156.864 225.818 157.551L225.73 158.286H233.94H242.15V157.549C242.15 156.836 242.089 156.797 240.376 156.397C239.088 156.097 238.335 155.757 237.624 155.156C237.086 154.701 233.691 151.091 230.081 147.134L223.518 139.938L227.398 136.619C234.641 130.422 235.123 130.078 237.733 129.236C240.011 128.5 240.069 128.463 240.153 127.668L240.239 126.855H233.819H227.398L227.485 127.673C227.566 128.444 227.663 128.519 229.175 128.977L230.779 129.463L223.482 135.957L216.185 142.45L216.107 136.518C216.064 133.256 216.094 130.37 216.173 130.106C216.324 129.602 216.944 129.343 219.24 128.821C220.553 128.523 220.633 128.462 220.714 127.681L220.801 126.855H212.314H203.828V127.638ZM272.193 127.681C272.279 128.498 272.3 128.512 274.213 128.937C275.277 129.174 276.308 129.476 276.504 129.609C276.788 129.8 276.862 132.478 276.862 142.563C276.862 157.12 277.156 155.689 274.015 156.366C272.173 156.764 272.141 156.783 272.141 157.528V158.286H288.386H304.631V153.99V149.694H303.447H302.263L301.475 152.011C301.042 153.286 300.519 154.66 300.313 155.064L299.939 155.799H292.01H284.082V149.58V143.362H288.482H292.883L293.336 144.21C293.585 144.677 294.051 145.643 294.37 146.358C294.943 147.64 294.967 147.658 296.042 147.658H297.133V142.005V136.352H296.047H294.96L294.207 137.992C292.895 140.85 293.337 140.649 288.379 140.649H284.082V135.109V129.569H290.853H297.625L298.043 130.303C298.273 130.708 298.813 131.929 299.243 133.017L300.025 134.996H301.217H302.409V130.925V126.855H287.258H272.107L272.193 127.681ZM336.566 131.051V135.248L337.718 135.178L338.871 135.109L340.009 132.395L341.148 129.682L345.66 129.619L350.173 129.557V142.424C350.173 154.04 350.129 155.322 349.72 155.602C349.471 155.772 348.253 156.12 347.013 156.375C344.817 156.825 344.756 156.857 344.671 157.562L344.584 158.286H353.627H362.669V157.536C362.669 156.786 362.668 156.786 360.517 156.379C359.333 156.155 358.146 155.815 357.879 155.624C357.427 155.301 357.393 154.381 357.393 142.417V129.557L361.906 129.619L366.418 129.682L367.557 132.395L368.695 135.109L369.848 135.178L371 135.248V131.051V126.855H353.783H336.566V131.051ZM156.591 141.638C157.384 143.239 157.982 144.589 157.921 144.639C157.86 144.689 155.623 144.702 152.949 144.668L148.088 144.606L149.312 142.005C149.985 140.575 151.11 138.194 151.813 136.713L153.089 134.022L154.12 136.374C154.687 137.668 155.799 140.037 156.591 141.638ZM162.176 176.498C160.898 176.965 160.031 177.644 159.302 178.75C158.452 180.039 158.466 183.091 159.328 184.431C160.719 186.594 163.534 187.474 166.756 186.753C168.167 186.437 169.989 184.924 170.443 183.691C171.011 182.145 170.869 180.043 170.106 178.708C169.135 177.009 167.695 176.287 165.114 176.206C163.781 176.164 162.833 176.258 162.176 176.498ZM209.665 176.53C208.475 177.037 207.438 178.254 207.438 179.145C207.438 180.141 208.238 181.325 209.177 181.721C209.634 181.913 210.632 182.222 211.394 182.406C212.953 182.783 214.103 183.583 214.103 184.29C214.103 184.55 213.781 185.025 213.387 185.346C212.796 185.827 212.489 185.908 211.615 185.813C209.966 185.633 209.009 185.15 208.478 184.231C207.69 182.87 207.16 183.117 207.16 184.845V186.304L208.202 186.553C212.21 187.513 215.474 186.726 216.34 184.592C217.063 182.806 215.845 181.389 212.929 180.624C210.704 180.041 209.937 179.538 209.937 178.664C209.937 176.86 213.607 176.782 214.523 178.567C214.735 178.979 215.101 179.316 215.338 179.316C215.679 179.316 215.769 179.035 215.769 177.972C215.769 177.233 215.632 176.56 215.465 176.476C215.298 176.392 214.142 176.277 212.897 176.221C211.074 176.139 210.443 176.2 209.665 176.53ZM126.073 176.711C126.073 176.895 126.387 177.11 126.77 177.188C127.164 177.269 127.53 177.541 127.613 177.814C127.694 178.08 127.724 179.925 127.68 181.913L127.601 185.528L126.837 185.826C126.417 185.99 126.073 186.271 126.073 186.451C126.073 186.715 126.634 186.778 129.009 186.778C131.628 186.778 131.936 186.736 131.854 186.392C131.804 186.18 131.451 185.947 131.07 185.874C130.421 185.75 130.373 185.639 130.296 184.107L130.214 182.473L131.309 182.615C132.721 182.799 134.109 182.418 135.104 181.572C135.744 181.028 135.918 180.647 136.013 179.588C136.116 178.423 136.046 178.196 135.388 177.559C134.403 176.606 133.237 176.379 129.336 176.377C126.639 176.376 126.073 176.434 126.073 176.711ZM141.624 176.711C141.624 176.895 141.937 177.11 142.318 177.188L143.013 177.33V181.494V185.658L142.318 185.873C141.937 185.992 141.624 186.243 141.624 186.433C141.624 186.72 142.112 186.778 144.54 186.778C146.769 186.778 147.456 186.707 147.456 186.479C147.456 186.315 147.05 186.035 146.553 185.857C145.668 185.54 145.649 185.503 145.569 183.895C145.494 182.379 145.53 182.255 146.048 182.255C146.444 182.255 147.1 182.85 148.283 184.283C149.204 185.398 150.198 186.415 150.493 186.544C150.788 186.673 151.725 186.778 152.575 186.778C153.787 186.778 154.121 186.702 154.121 186.427C154.121 186.234 153.748 185.97 153.293 185.841C152.731 185.681 151.973 185.034 150.932 183.825C150.089 182.845 149.4 181.945 149.4 181.826C149.4 181.706 149.646 181.544 149.948 181.466C150.934 181.211 151.621 180.243 151.621 179.109C151.621 176.907 150.381 176.376 145.243 176.376C142.232 176.376 141.624 176.432 141.624 176.711ZM176.336 176.666C176.336 176.825 176.714 177.071 177.176 177.213L178.015 177.471L177.939 181.606L177.863 185.74L177.171 185.873C176.79 185.946 176.437 186.18 176.387 186.392C176.305 186.736 176.615 186.778 179.252 186.778C181.889 186.778 182.198 186.736 182.117 186.392C182.067 186.18 181.714 185.947 181.333 185.873C180.673 185.747 180.636 185.654 180.56 183.885L180.479 182.029H181.893C183.215 182.029 183.326 182.073 183.598 182.708C183.757 183.081 184.063 183.386 184.278 183.386C184.581 183.386 184.667 182.962 184.667 181.464C184.667 179.981 184.579 179.542 184.284 179.542C184.073 179.542 183.746 179.847 183.556 180.22C183.239 180.843 183.1 180.899 181.856 180.899H180.501V179.08V177.262L182.63 177.328L184.758 177.394L185.084 178.185C185.263 178.62 185.618 179.009 185.872 179.05C186.261 179.111 186.333 178.908 186.333 177.749V176.376H181.335C177.457 176.376 176.336 176.441 176.336 176.666ZM191.609 176.666C191.609 176.825 191.987 177.071 192.449 177.213L193.288 177.471L193.212 181.606L193.137 185.74L192.444 185.873C192.063 185.946 191.71 186.18 191.66 186.392C191.578 186.736 191.888 186.778 194.525 186.778C197.162 186.778 197.472 186.736 197.39 186.392C197.34 186.18 196.987 185.947 196.606 185.873C195.946 185.747 195.91 185.654 195.833 183.885L195.752 182.029H197.167C198.488 182.029 198.599 182.073 198.871 182.708C199.031 183.081 199.337 183.386 199.551 183.386C199.854 183.386 199.94 182.962 199.94 181.464C199.94 179.981 199.853 179.542 199.557 179.542C199.347 179.542 199.019 179.847 198.829 180.22C198.512 180.843 198.373 180.899 197.13 180.899H195.775V179.08V177.262L197.903 177.328L200.031 177.394L200.357 178.185C200.537 178.62 200.891 179.009 201.145 179.05C201.534 179.111 201.606 178.908 201.606 177.749V176.376H196.608C192.73 176.376 191.609 176.441 191.609 176.666ZM222.156 176.711C222.156 176.895 222.469 177.11 222.852 177.188C223.246 177.269 223.613 177.541 223.696 177.814C223.776 178.08 223.806 179.925 223.762 181.913L223.683 185.528L222.919 185.826C222.499 185.99 222.156 186.271 222.156 186.451C222.156 186.725 223.033 186.778 227.571 186.778H232.986V185.308C232.986 183.998 232.926 183.838 232.441 183.838C232.041 183.838 231.817 184.078 231.597 184.743L231.298 185.647H228.81H226.321V183.725V181.803H227.595C228.755 181.803 228.897 181.863 229.183 182.481C229.37 182.885 229.698 183.16 229.992 183.16C230.427 183.16 230.487 182.93 230.487 181.238C230.487 179.652 230.411 179.316 230.056 179.316C229.819 179.316 229.442 179.672 229.219 180.107C228.84 180.845 228.728 180.899 227.567 180.899H226.321V179.09V177.281H228.231C230.27 177.281 230.588 177.422 230.911 178.469C231.035 178.872 231.286 179.09 231.627 179.09C232.084 179.09 232.153 178.913 232.153 177.733V176.376H227.154C222.925 176.376 222.156 176.428 222.156 176.711ZM238.262 176.666C238.262 176.825 238.637 177.07 239.095 177.211L239.928 177.467V181.563V185.658L239.234 185.873C238.852 185.992 238.54 186.243 238.54 186.433C238.54 186.713 238.956 186.778 240.761 186.778C242.513 186.778 242.983 186.709 242.983 186.451C242.983 186.271 242.639 185.99 242.219 185.826L241.455 185.529L241.379 182.139L241.303 178.75L242.849 180.559C243.7 181.554 245.234 183.357 246.258 184.566C247.803 186.39 248.244 186.765 248.847 186.771C249.474 186.777 249.599 186.661 249.747 185.93C249.842 185.464 249.92 183.372 249.922 181.282L249.925 177.483L250.758 177.247C251.216 177.117 251.591 176.867 251.591 176.693C251.591 176.446 251.071 176.376 249.231 176.376C247.391 176.376 246.871 176.446 246.871 176.693C246.871 176.867 247.245 177.117 247.704 177.247L248.537 177.483V180.586V183.688L245.437 180.032L242.338 176.376H240.3C238.828 176.376 238.262 176.457 238.262 176.666ZM166.62 177.849C168.909 179.634 168.427 184.923 165.898 185.783C164.45 186.276 163.064 185.804 162.179 184.517C161.576 183.639 161.479 183.219 161.479 181.464C161.48 179.165 162.006 177.954 163.251 177.383C164.24 176.931 165.702 177.132 166.62 177.849ZM132.009 177.496C134.302 178.206 133.602 181.577 131.162 181.577H130.239V179.429C130.239 177.078 130.332 176.977 132.009 177.496ZM148.525 178.098C149.828 179.331 148.496 181.463 146.52 181.306L145.651 181.238L145.57 179.228L145.489 177.219L146.681 177.349C147.507 177.439 148.071 177.668 148.525 178.098Z" fill="white"/>
</svg>
